<?xml version="1.0" encoding="UTF-8"?>
<svg id="Layer_1" data-name="Layer 1" xmlns="http://www.w3.org/2000/svg" viewBox="0 0 192.94 122.56">
  <path d="M99.82,51.26c-13.67,16.07-27.5,32.03-41.19,48.07-4.38,5.13-8.45,10.46-12.94,15.48-1.01,1.12-1.39,1.88-2.77.78-4.47-3.56-8.45-9.26-12.94-12.93L.41,73.1c-.19-.22-.37-.52-.41-.81-.12-.96,12.32-12.07,13.49-13.94.21-.12.61-.08.84,0,.24.08,3.28,3.04,3.77,3.52,8,7.82,15.66,16.04,23.68,23.85l1.24.62L116.84,0c.45-.04,1.98,1.28,2.45,1.66,3.81,3.13,8.34,6.75,11.91,10.06,1.46,1.36.8,1.55-.31,2.97-6.54,8.35-14.23,16.52-21.14,24.64-3.35,3.94-6.6,8-9.94,11.93Z"/>
  <path d="M183.12,10.4c3.16,2.62,6.36,5.19,9.48,7.87.39.37.41.97.19,1.45l-87.87,102.85-21.67-21.44c-.41-.41-.8-.96-.51-1.54,1.89-1.49,11.64-14.39,12.78-14.55.24-.03.41-.01.58.17l7.39,7.21.62-.21L177.39,6.36l.38-.15c1.1,0,4.32,3.33,5.35,4.19Z"/>
</svg>