<?xml version="1.0" encoding="UTF-8"?>
<svg id="Layer_1" xmlns="http://www.w3.org/2000/svg" version="1.1" viewBox="0 0 192.9 122.6">
  <!-- Generator: Adobe Illustrator 29.3.1, SVG Export Plug-In . SVG Version: 2.1.0 Build 151)  -->
  <path d="M84.8,52.8c-11.6,13.7-23.4,27.2-35,40.8-3.7,4.4-7.2,8.9-11,13.2-.9,1-1.2,1.6-2.4.7-3.8-3-7.2-7.9-11-11L.3,71.3c-.2-.2-.3-.4-.3-.7-.1-.8,10.5-10.3,11.5-11.8.2-.1.5,0,.7,0,.2,0,2.8,2.6,3.2,3,6.8,6.6,13.3,13.6,20.1,20.3l1.1.5L99.3,9.2c.4,0,1.7,1.1,2.1,1.4,3.2,2.7,7.1,5.7,10.1,8.5,1.2,1.2.7,1.3-.3,2.5-5.6,7.1-12.1,14-18,20.9-2.8,3.3-5.6,6.8-8.4,10.1h0Z"/>
  <path d="M143.2,15.9c2.7,2.2,5.4,4.4,8.1,6.7.3.3.3.8.2,1.2l-74.7,87.4-18.4-18.2c-.3-.3-.7-.8-.4-1.3,1.6-1.3,9.9-12.2,10.9-12.4.2,0,.3,0,.5.1l6.3,6.1.5-.2L138.3,12.5h.3c.9-.1,3.7,2.7,4.5,3.4h0Z"/>
  <path d="M184.6,18.2c2.7,2.2,5.4,4.4,8.1,6.7.3.3.3.8.2,1.2l-74.7,87.4-18.4-18.2c-.3-.3-.7-.8-.4-1.3,1.6-1.3,9.9-12.2,10.9-12.4.2,0,.3,0,.5.1l6.3,6.1.5-.2L179.7,14.7h.3c.9-.1,3.7,2.7,4.5,3.4h0Z"/>
</svg>